<?xml version="1.0" encoding="UTF-8"?>
<svg xmlns="http://www.w3.org/2000/svg" viewBox="0 0 1095 1095" width="1095" height="1095">
<path d="M0.25 0.25C365.08 0.25 729.92 0.25 1094.75 0.25C1094.75 365.08 1094.75 729.92 1094.75 1094.75C729.92 1094.75 365.08 1094.75 0.25 1094.75C0.25 729.92 0.25 365.08 0.25 0.25ZM954.5 157.93C942.92 168.25 932.32 179.9 921.38 190.9C896.96 215.47 872.47 239.97 847.96 264.44C778.26 334.01 708.62 403.81 639.36 473.86C597.93 515.76 556.18 557.36 514.65 599.16C501.36 612.53 488 625.83 474.85 639.33C469.07 645.27 462.24 650.74 457.42 657.5C490.8 633.95 523.34 609.01 556.12 584.6C598.36 553.16 641.3 522.56 683.27 490.76C693.71 482.85 704.46 475.34 714.87 467.4C720.77 462.9 727.47 456.44 734.66 454.22C746.89 450.44 759.99 455.04 765.68 466.79C774.39 484.79 778.57 505.83 781.21 525.48C797.03 643.28 714.01 758.15 595.47 775.81C565.71 780.24 536 778.03 506.72 771.65C498.98 769.96 491.03 767.51 483.56 764.88C480.53 763.82 476.71 761.29 473.48 761.24C470.95 761.21 468.1 763.33 465.88 764.4C460.71 766.9 455.48 769.37 450.24 771.71C434.21 778.86 418.21 786.24 402.44 793.93C396.26 796.95 385.83 799.98 381.08 804.5C403.82 821.35 431.21 834.56 457.99 843.51C511.46 861.4 567.87 866.52 623.37 854.7C739.99 829.87 835.87 734.45 859.68 617.31C866.29 584.79 867.67 551.45 863.84 518.5C860.97 493.81 854.12 469.87 850.37 445.33C845.26 411.88 844.1 376.95 851.34 343.72C861.86 295.42 888.14 253.5 915.66 213.19C924.68 199.97 934.51 187.29 943.61 174.13C946.95 169.3 953.18 163.53 954.5 157.93ZM737.24 303.5C731.17 296.36 711.17 285.63 702.26 281.26C671.13 266.01 638.86 255.03 604.5 249.86C577.35 245.78 549.84 245.04 522.53 248.26C385.4 264.42 274.91 373.17 255.18 509.52C249.43 549.28 250.58 591.46 261.24 630.36C263.99 640.4 267.01 650.32 270.42 660.16C273.73 669.73 278.14 678.82 280.71 688.65C286.65 711.31 286.49 734.85 279.74 757.31C263.64 810.84 216.45 851.47 180.26 891.76C170.31 902.84 159.96 913.49 150.51 925.01C146.84 929.49 141.65 934.37 139.5 939.73C225.38 862.98 311.27 786.24 397.15 709.5C395.03 705.85 391.41 703.11 388.56 699.94C383.17 693.95 377.93 687.8 373.1 681.35C355.85 658.27 343.63 631.32 337.37 603.22C310.76 483.68 392.31 357.91 512.61 334.3C542.91 328.35 572.96 327.83 603.38 333.28C613.53 335.1 623.44 338.14 633.24 341.35C636.82 342.52 641.69 345.99 645.47 345.81C647.71 345.71 650.34 343.74 652.34 342.79C658.45 339.91 664.6 337.05 670.78 334.32C692.99 324.49 715.68 314.68 737.24 303.5Z" fill="#000000" fill-rule="evenodd" stroke="#000000" stroke-width="0.25" stroke-linejoin="round"/>
<path d="M954.5 157.93C953.18 163.53 946.95 169.3 943.61 174.13C934.51 187.29 924.68 199.97 915.66 213.19C888.14 253.5 861.86 295.42 851.34 343.72C844.1 376.95 845.26 411.88 850.37 445.33C854.12 469.87 860.97 493.81 863.84 518.5C867.67 551.45 866.29 584.79 859.68 617.31C835.87 734.45 739.99 829.87 623.37 854.7C567.87 866.52 511.46 861.4 457.99 843.51C431.21 834.56 403.82 821.35 381.08 804.5C385.83 799.98 396.26 796.95 402.44 793.93C418.21 786.24 434.21 778.86 450.24 771.71C455.48 769.37 460.71 766.9 465.88 764.4C468.1 763.33 470.95 761.21 473.48 761.24C476.71 761.29 480.53 763.82 483.56 764.88C491.03 767.51 498.98 769.96 506.72 771.65C536 778.03 565.71 780.24 595.47 775.81C714.01 758.15 797.03 643.28 781.21 525.48C778.57 505.83 774.39 484.79 765.68 466.79C759.99 455.04 746.89 450.44 734.66 454.22C727.47 456.44 720.77 462.9 714.87 467.4C704.46 475.34 693.71 482.85 683.27 490.76C641.3 522.56 598.36 553.16 556.12 584.6C523.34 609.01 490.8 633.95 457.42 657.5C462.24 650.74 469.07 645.27 474.85 639.33C488 625.83 501.36 612.53 514.65 599.16C556.18 557.36 597.93 515.76 639.36 473.86C708.62 403.81 778.26 334.01 847.96 264.44C872.47 239.97 896.96 215.47 921.38 190.9C932.32 179.9 942.92 168.25 954.5 157.93ZM737.24 303.5C715.68 314.68 692.99 324.49 670.78 334.32C664.6 337.05 658.45 339.91 652.34 342.79C650.34 343.74 647.71 345.71 645.47 345.81C641.69 345.99 636.82 342.52 633.24 341.35C623.44 338.14 613.53 335.1 603.38 333.28C572.96 327.83 542.91 328.35 512.61 334.3C392.31 357.91 310.76 483.68 337.37 603.22C343.63 631.32 355.85 658.27 373.1 681.35C377.93 687.8 383.17 693.95 388.56 699.94C391.41 703.11 395.03 705.85 397.15 709.5C311.27 786.24 225.38 862.98 139.5 939.73C141.65 934.37 146.84 929.49 150.51 925.01C159.96 913.49 170.31 902.84 180.26 891.76C216.45 851.47 263.64 810.84 279.74 757.31C286.49 734.85 286.65 711.31 280.71 688.65C278.14 678.82 273.73 669.73 270.42 660.16C267.01 650.32 263.99 640.4 261.24 630.36C250.58 591.46 249.43 549.28 255.18 509.52C274.91 373.17 385.4 264.42 522.53 248.26C549.84 245.04 577.35 245.78 604.5 249.86C638.86 255.03 671.13 266.01 702.26 281.26C711.17 285.63 731.17 296.36 737.24 303.5Z" fill="#ffffff" fill-rule="evenodd" stroke="#ffffff" stroke-width="0.25" stroke-linejoin="round"/>
</svg>